<svg width="25" height="26" viewBox="0 0 25 26" fill="none" xmlns="http://www.w3.org/2000/svg">
<path fill-rule="evenodd" clip-rule="evenodd" d="M23.4974 6.71776C23.4974 6.92492 23.4791 7.11988 23.4548 7.31485L24.7403 8.32016C24.8561 8.41155 24.8866 8.57606 24.8135 8.7101L23.5949 10.8182C23.5218 10.9522 23.3634 11.0071 23.2232 10.9522L21.7061 10.343C21.3893 10.5806 21.0481 10.7877 20.6765 10.94L20.4449 12.5546C20.4267 12.7009 20.2987 12.8105 20.1464 12.8105H17.7093C17.557 12.8105 17.429 12.7009 17.4108 12.5546L17.1792 10.94C16.8076 10.7877 16.4664 10.5867 16.1496 10.343L14.6325 10.9522C14.4984 11.001 14.3339 10.9522 14.2608 10.8182L13.0422 8.7101C12.9691 8.57606 12.9996 8.41155 13.1154 8.32016L14.4009 7.31485C14.3766 7.11988 14.3583 6.91882 14.3583 6.71776C14.3583 6.5167 14.3766 6.31564 14.4009 6.12067L13.1154 5.11537C12.9996 5.02397 12.963 4.85947 13.0422 4.72543L14.2608 2.61733C14.3339 2.48329 14.4923 2.42846 14.6325 2.48329L16.1496 3.09257C16.4664 2.85495 16.8076 2.6478 17.1792 2.49548L17.4108 0.880896C17.429 0.73467 17.557 0.625 17.7093 0.625H20.1464C20.2987 0.625 20.4267 0.73467 20.4449 0.880896L20.6765 2.49548C21.0481 2.6478 21.3893 2.84886 21.7061 3.09257L23.2232 2.48329C23.3573 2.43455 23.5218 2.48329 23.5949 2.61733L24.8135 4.72543C24.8866 4.85947 24.8561 5.02397 24.7403 5.11537L23.4548 6.12067C23.4791 6.31564 23.4974 6.51061 23.4974 6.71776ZM16.7947 6.71865C16.7947 7.89455 17.7512 8.85111 18.9271 8.85111C20.103 8.85111 21.0596 7.89455 21.0596 6.71865C21.0596 5.54275 20.103 4.58618 18.9271 4.58618C17.7512 4.58618 16.7947 5.54275 16.7947 6.71865Z" fill="#3478F6"/>
<path fill-rule="evenodd" clip-rule="evenodd" d="M13.6143 17.7891C13.6143 18.0454 13.5917 18.2866 13.5615 18.5279L15.1523 19.7718C15.2955 19.8849 15.3332 20.0885 15.2427 20.2543L13.7349 22.8628C13.6444 23.0287 13.4484 23.0966 13.275 23.0287L11.3978 22.2748C11.0058 22.5688 10.5836 22.8251 10.1237 23.0136L9.83722 25.0115C9.81461 25.1924 9.65629 25.3281 9.46781 25.3281H6.45219C6.26371 25.3281 6.10539 25.1924 6.08277 25.0115L5.79629 23.0136C5.33641 22.8251 4.91422 22.5764 4.52219 22.2748L2.64496 23.0287C2.4791 23.089 2.27555 23.0287 2.18508 22.8628L0.677269 20.2543C0.586801 20.0885 0.624496 19.8849 0.767738 19.7718L2.35848 18.5279C2.32832 18.2866 2.30571 18.0378 2.30571 17.7891C2.30571 17.5403 2.32832 17.2915 2.35848 17.0502L0.767738 15.8063C0.624496 15.6932 0.579262 15.4896 0.677269 15.3238L2.18508 12.7153C2.27555 12.5494 2.47156 12.4816 2.64496 12.5494L4.52219 13.3033C4.91422 13.0093 5.33641 12.753 5.79629 12.5645L6.08277 10.5666C6.10539 10.3857 6.26371 10.25 6.45219 10.25H9.46781C9.65629 10.25 9.81461 10.3857 9.83722 10.5666L10.1237 12.5645C10.5836 12.753 11.0058 13.0018 11.3978 13.3033L13.275 12.5494C13.4409 12.4891 13.6444 12.5494 13.7349 12.7153L15.2427 15.3238C15.3332 15.4896 15.2955 15.6932 15.1523 15.8063L13.5615 17.0502C13.5917 17.2915 13.6143 17.5327 13.6143 17.7891ZM5.31665 17.8354C5.31665 19.2905 6.50028 20.4741 7.95532 20.4741C9.41036 20.4741 10.594 19.2905 10.594 17.8354C10.594 16.3804 9.41036 15.1968 7.95532 15.1968C6.50028 15.1968 5.31665 16.3804 5.31665 17.8354Z" fill="#3478F6"/>
</svg>
