<?xml version="1.0" encoding="UTF-8"?>
<svg width="300px" height="300px" viewBox="0 0 300 300" version="1.1" xmlns="http://www.w3.org/2000/svg" xmlns:xlink="http://www.w3.org/1999/xlink">
    <!-- Generator: Sketch 48.1 (47250) - http://www.bohemiancoding.com/sketch -->
    <title>Transactions</title>
    <desc>Created with Sketch.</desc>
    <defs></defs>
    <g id="Artboard" stroke="none" stroke-width="1" fill="none" fill-rule="evenodd">
        <g id="Oval">
            <circle fill="#FFFFFF" fill-rule="evenodd" cx="150" cy="150" r="150"></circle>
            <g id="noun_1157134_cc" stroke-width="1" fill-rule="evenodd" transform="translate(75.449102, 66.467066)"></g>
            <path d="M221.856287,107.699241 C221.856287,103.098957 218.098973,99.3505772 213.487723,99.3505772 L104.18402,99.3505772 L122.458233,80.7790604 C125.703187,77.5418236 125.703187,72.2600161 122.458233,68.8523983 C120.750363,67.1485894 118.700918,66.4670659 116.480687,66.4670659 C114.260455,66.4670659 112.211011,67.3189703 110.503141,68.8523983 L77.882817,101.73591 C74.6378634,104.973146 74.6378634,110.254954 77.882817,113.492191 L110.673928,146.546083 C112.211011,148.079511 114.431243,149.101796 116.651474,149.101796 C118.871705,149.101796 120.92115,148.249892 122.62902,146.716464 C124.166103,145.183036 125.190826,142.968084 125.190826,140.753133 C125.190826,138.538181 124.336891,136.32323 122.799807,134.789802 L103.842446,116.047904 L213.316936,116.047904 C218.098973,116.047904 221.856287,112.299525 221.856287,107.699241 Z" id="Shape" fill="#2578F9" fill-rule="nonzero"></path>
            <path d="M183.348526,233.532934 C185.568757,233.532934 187.788989,232.67971 189.326072,230.973263 L222.117183,197.868177 C225.362137,194.625926 225.362137,189.335938 222.117183,186.093688 L189.326072,153.329892 C186.081119,150.087641 180.786721,150.087641 177.37098,153.329892 C174.126026,156.572142 174.126026,161.86213 177.37098,165.275026 L195.81598,183.704661 L86.5122773,183.704661 C81.9010273,183.704661 78.1437126,187.458846 78.1437126,192.066255 C78.1437126,196.673664 81.9010273,200.427848 86.5122773,200.427848 L195.986767,200.427848 L177.37098,219.198773 C175.833897,220.734576 174.979961,222.952958 174.979961,225.17134 C174.979961,227.389722 175.833897,229.43746 177.541767,231.143907 C179.07885,232.67971 181.128295,233.532934 183.348526,233.532934 Z" id="Shape" fill="#2578F9" fill-rule="nonzero"></path>
        </g>
    </g>
</svg>